<?xml version="1.0" standalone="no"?>
<!DOCTYPE svg PUBLIC "-//W3C//DTD SVG 20010904//EN"
 "http://www.w3.org/TR/2001/REC-SVG-20010904/DTD/svg10.dtd">
<svg version="1.0" xmlns="http://www.w3.org/2000/svg"
 width="700.000000pt" height="700.000000pt" viewBox="0 0 700.000000 700.000000"
 preserveAspectRatio="xMidYMid meet">
<metadata>
Created by potrace 1.11, written by Peter Selinger 2001-2013
</metadata>
<g transform="translate(0.000000,700.000000) scale(0.100000,-0.100000)"
fill="#000000" stroke="none">
<path d="M1520 6993 c-241 -23 -428 -76 -620 -174 -478 -244 -798 -690 -882
-1229 -19 -125 -19 -4055 0 -4180 113 -730 662 -1279 1392 -1392 125 -19 4055
-19 4180 0 730 113 1279 662 1392 1392 19 125 19 4055 0 4180 -94 606 -498
1104 -1062 1308 -233 84 -305 93 -811 99 l-437 5 -6 -294 c-4 -161 -6 -432 -4
-603 l3 -310 485 0 c267 0 631 3 810 7 l326 8 0 -213 0 -212 -141 6 c-77 4
-443 7 -812 8 l-673 1 0 -951 0 -951 988 5 c543 4 1003 9 1022 12 l35 7 0
-216 0 -216 -245 7 c-320 10 -5771 10 -6090 0 l-245 -7 8 109 c5 63 4 154 -1
213 -5 57 -8 104 -8 105 1 1 89 -3 196 -7 107 -5 567 -9 1023 -10 l827 0 0
950 0 950 -672 -1 c-370 -1 -736 -4 -813 -8 l-140 -6 0 214 0 214 155 -7 c85
-3 451 -9 813 -13 l657 -6 0 569 c0 313 -3 586 -6 607 l-7 37 -301 -2 c-165 0
-317 -3 -336 -5z m3492 -4697 c233 -216 605 -577 828 -800 l405 -407 -125
-120 c-69 -66 -158 -149 -199 -186 l-73 -67 -417 421 c-279 284 -539 534 -791
764 -206 188 -386 352 -399 364 l-23 23 177 201 c98 110 182 201 186 201 4 0
198 -177 431 -394z m-2805 290 c108 -74 199 -129 296 -178 45 -22 83 -42 85
-44 2 -1 -29 -57 -70 -124 -420 -696 -1099 -1274 -1947 -1655 -56 -25 -103
-45 -105 -45 -2 0 -9 20 -15 44 -22 88 -98 221 -172 300 -40 42 -70 78 -68 79
2 2 36 16 74 32 217 88 532 266 725 408 367 271 761 703 1075 1180 21 31 39
57 41 57 1 0 38 -24 81 -54z"/>
<path d="M2676 6969 c-3 -17 -6 -290 -6 -605 l0 -574 750 0 750 0 0 463 c0
254 -3 526 -7 605 l-6 142 -737 0 -737 0 -7 -31z"/>
<path d="M2670 4450 l0 -950 750 0 750 0 0 950 0 950 -750 0 -750 0 0 -950z"/>
</g>
</svg>
