<?xml version="1.0" standalone="no"?>
<!DOCTYPE svg PUBLIC "-//W3C//DTD SVG 20010904//EN"
 "http://www.w3.org/TR/2001/REC-SVG-20010904/DTD/svg10.dtd">
<svg version="1.0" xmlns="http://www.w3.org/2000/svg"
 width="688.000000pt" height="688.000000pt" viewBox="0 0 688.000000 688.000000"
 preserveAspectRatio="xMidYMid meet">
<metadata>
Created by potrace 1.11, written by Peter Selinger 2001-2013
</metadata>
<g transform="translate(0.000000,688.000000) scale(0.100000,-0.100000)"
fill="#000000" stroke="none">
<path d="M1215 6850 c-11 -4 -22 -6 -25 -5 -11 6 -86 -52 -106 -82 -11 -17
-29 -57 -39 -89 -33 -107 -170 -415 -187 -422 -4 -2 -8 -9 -8 -16 0 -7 -20
-53 -45 -102 -68 -132 -152 -346 -170 -433 -27 -126 -34 -166 -41 -221 -13
-104 -10 -436 5 -515 8 -38 15 -77 16 -85 4 -21 53 -169 68 -202 7 -16 15 -28
19 -28 5 0 8 -5 8 -11 0 -39 131 -178 215 -229 22 -13 42 -25 44 -27 4 -3 -30
-74 -40 -83 -12 -11 -109 -221 -152 -330 -37 -95 -82 -230 -92 -275 -1 -5 -7
-30 -14 -55 -7 -25 -15 -56 -18 -70 -2 -14 -8 -41 -13 -60 -4 -19 -14 -69 -20
-110 -6 -41 -13 -85 -15 -97 -23 -144 -28 -656 -7 -697 2 -4 6 -34 8 -65 3
-46 21 -149 49 -276 3 -11 7 -29 9 -41 19 -95 105 -347 154 -454 14 -30 26
-57 26 -60 3 -14 112 -220 148 -278 22 -37 50 -83 62 -102 11 -19 26 -41 33
-48 7 -7 20 -26 30 -42 9 -17 21 -30 25 -30 4 0 8 -5 8 -11 0 -21 172 -220
291 -339 119 -117 172 -163 317 -273 56 -42 221 -150 272 -178 25 -13 47 -27
50 -30 6 -6 240 -120 255 -124 6 -1 28 -10 50 -20 55 -24 224 -85 255 -91 14
-2 45 -11 70 -18 39 -12 75 -22 115 -31 68 -16 176 -36 218 -41 28 -3 58 -7
66 -10 71 -24 606 -24 751 0 14 3 41 7 60 10 182 29 448 94 478 118 6 6 12 8
12 4 0 -3 17 1 38 10 20 9 42 17 47 18 45 12 353 151 365 165 3 4 23 15 45 26
22 11 72 41 112 68 40 26 75 47 78 47 4 0 12 6 20 13 7 6 25 21 41 32 146 104
231 176 363 307 126 124 341 379 341 404 0 4 8 17 19 28 57 64 239 403 290
541 13 33 26 67 30 75 4 8 20 56 35 105 15 50 30 97 33 105 9 22 11 32 18 65
3 17 8 37 12 45 3 8 7 22 8 30 1 8 12 65 23 125 12 61 24 130 27 155 2 25 8
74 12 110 15 134 9 497 -12 665 -15 115 -88 433 -115 500 -4 11 -18 49 -31 85
-12 36 -31 85 -42 110 -11 25 -21 50 -22 55 -4 18 -98 208 -127 258 -15 26
-28 49 -28 51 0 2 26 19 58 39 67 42 135 106 177 168 16 24 33 47 38 50 4 3
10 16 12 29 2 13 8 26 13 29 9 6 45 106 57 156 24 102 25 107 32 160 8 57 8
409 0 470 -10 84 -18 122 -37 200 -11 44 -23 91 -26 105 -3 14 -9 29 -15 34
-5 6 -9 18 -9 27 0 9 -13 47 -30 84 -16 37 -30 73 -30 81 0 8 -4 14 -10 14 -5
0 -10 5 -10 11 0 7 -39 91 -87 188 -115 236 -138 287 -184 415 -21 60 -45 119
-53 132 -25 37 -78 71 -133 84 -67 15 -197 5 -273 -22 -8 -3 -37 -13 -65 -23
-27 -9 -83 -32 -123 -51 -40 -19 -77 -34 -83 -34 -5 0 -9 -4 -9 -10 0 -5 -5
-10 -11 -10 -14 0 -153 -81 -157 -92 -2 -4 -9 -8 -15 -8 -12 0 -161 -104 -209
-145 -13 -11 -41 -33 -62 -49 -78 -59 -253 -228 -321 -310 -22 -27 -45 -54
-51 -60 -10 -11 -87 -123 -111 -162 -7 -10 -27 -47 -44 -82 -23 -44 -37 -61
-48 -58 -40 12 -150 36 -191 42 -25 3 -56 9 -70 11 -173 33 -645 38 -800 9
-37 -7 -101 -17 -135 -22 -60 -7 -91 -13 -125 -23 -65 -20 -73 -16 -105 54
-16 36 -32 65 -36 65 -4 0 -9 8 -12 18 -5 20 -114 168 -167 226 -62 70 -223
226 -272 264 -27 20 -48 40 -48 44 0 4 -7 8 -15 8 -8 0 -15 4 -15 8 0 5 -22
24 -50 43 -27 19 -50 37 -50 42 0 4 -4 7 -9 7 -5 0 -49 26 -98 59 -48 32 -119
75 -158 96 -38 21 -74 41 -80 45 -15 11 -236 98 -265 104 -14 3 -36 8 -50 11
-40 11 -183 14 -205 5z"/>
</g>
</svg>
